<svg width="100" height="100" viewBox="0 0 100 100" fill="none" xmlns="http://www.w3.org/2000/svg">
<path d="M19.0241 46.7379C18.6827 46.7359 18.334 46.7346 17.9709 46.7346C11.36 46.7346 10.3 48.2118 10.3 50.4279C10.3 53.0134 11.2677 54.1213 17.9709 54.1213C18.3341 54.1213 18.6832 54.1198 19.0241 54.1174V46.7379Z" fill="#CCCCCC"/>
<path d="M80.9672 46.7379C81.3086 46.7359 81.6573 46.7346 82.0204 46.7346C88.6313 46.7346 89.6913 48.2118 89.6913 50.4279C89.6913 53.0134 88.7236 54.1213 82.0204 54.1213C81.6572 54.1213 81.3081 54.1198 80.9672 54.1174V46.7379Z" fill="#CCCCCC"/>
<path d="M50.7256 6.58474C59.5391 6.58474 63.4084 9.47848 63.4084 9.47848C63.4084 9.47848 73.8918 -0.37765 76.0912 0.797284C78.0259 1.83075 77.811 20.0201 77.811 20.0201C77.811 20.0201 86.6244 33.7993 84.045 56.1226C81.4654 78.4458 75.9812 85.0494 73.7267 87.7471C71.725 90.1425 65.0575 99.3222 50.01 99.3222H49.9814C34.9339 99.3222 28.2571 90.1481 26.2647 87.7471C24.2716 85.3453 18.526 78.4458 15.9464 56.1226C13.367 33.7993 22.1804 20.0201 22.1804 20.0201C22.1804 20.0201 21.9655 1.83075 23.9002 0.797284C26.0996 -0.37765 36.583 9.47848 36.583 9.47848C36.583 9.47848 40.4523 6.58474 49.2658 6.58474H50.7256Z" fill="white"/>
<path d="M50.7256 6.58474C59.5391 6.58474 63.4084 9.47848 63.4084 9.47848C63.4084 9.47848 73.8918 -0.377658 76.0912 0.797276C78.0259 1.83074 77.811 20.0201 77.811 20.0201C77.811 20.0201 86.6244 33.7993 84.045 56.1226C81.4654 78.4458 75.9812 85.0494 73.7267 87.7471C71.725 90.1425 65.0575 99.3222 50.01 99.3222H49.9814C34.9339 99.3222 28.2571 90.1481 26.2647 87.7471C24.2716 85.3453 18.526 78.4458 15.9464 56.1226C13.367 33.7993 22.1804 20.0201 22.1804 20.0201C22.1804 20.0201 21.9655 1.83074 23.9002 0.797276C26.0996 -0.377658 36.583 9.47848 36.583 9.47848C36.583 9.47848 40.4523 6.58474 49.2658 6.58474H50.7256Z" stroke="#666666" stroke-width="0.4" stroke-linejoin="round"/>
<path d="M33.5734 11.1321C33.5734 11.1321 27.1245 3.89769 25.6198 4.31116C24.115 4.72449 25.1898 15.2661 26.2646 16.9196C29.4891 12.9924 33.5734 11.1321 33.5734 11.1321Z" fill="#B3B3B3"/>
<path d="M33.5817 11.1503C33.2382 11.3357 32.902 11.5352 32.5701 11.74L32.0782 12.0568C31.9162 12.1652 31.751 12.2684 31.592 12.3811C31.4326 12.4932 31.2705 12.6009 31.1138 12.7165L30.6438 13.0628L30.1821 13.4195C30.0273 13.5369 29.88 13.664 29.7286 13.7857L29.503 13.9701L29.283 14.1609C29.1369 14.2887 28.9878 14.4132 28.8441 14.5435L28.418 14.9397C28.2741 15.0697 28.1382 15.208 28.0004 15.3443C27.864 15.4819 27.7222 15.6144 27.5902 15.756L27.195 16.1819C27.0613 16.322 26.9345 16.4681 26.8089 16.6153L26.4294 17.0548L26.4229 17.0623C26.3472 17.1499 26.2148 17.1596 26.1272 17.0839C26.1109 17.0699 26.0968 17.0531 26.086 17.0357C25.9358 16.7936 25.8496 16.5551 25.7688 16.3132C25.6906 16.072 25.6261 15.8301 25.5669 15.5877C25.4494 15.1029 25.3572 14.616 25.2742 14.1281C25.1922 13.6401 25.1221 13.1509 25.0662 12.6603C25.0102 12.1697 24.9577 11.6791 24.9233 11.1868C24.8526 10.2025 24.8125 9.21681 24.8104 8.23094C24.8092 7.73814 24.8133 7.24507 24.839 6.75227C24.8622 6.25934 24.9018 5.76628 24.9953 5.27601C25.0469 5.03201 25.1058 4.78641 25.2284 4.55188C25.296 4.43641 25.3674 4.32121 25.5217 4.24147L25.5642 4.22347L25.5749 4.21894L25.5801 4.21681C25.5801 4.21681 25.6024 4.20921 25.5961 4.21161L25.6234 4.20561C25.6604 4.19654 25.697 4.19054 25.7328 4.19001C25.8052 4.18481 25.8744 4.19228 25.9409 4.20361C26.207 4.25241 26.4389 4.36308 26.6624 4.48028C26.8854 4.59894 27.0974 4.73241 27.3042 4.87188C27.7189 5.14975 28.1074 5.45921 28.486 5.77814C28.8634 6.09854 29.2286 6.43148 29.5853 6.77268C29.9432 7.11268 30.2944 7.45894 30.638 7.81241C30.9834 8.16401 31.3217 8.52228 31.6552 8.88468C31.9894 9.24641 32.3174 9.61401 32.6397 9.98614C32.9596 10.3608 33.282 10.7327 33.5884 11.1188C33.5956 11.1279 33.594 11.1409 33.5849 11.1481C33.584 11.1489 33.5828 11.1497 33.5817 11.1503ZM33.5386 11.1257L31.4668 9.06695C30.7669 8.37828 30.0629 7.69481 29.3456 7.02801C28.9848 6.69707 28.623 6.36774 28.2544 6.04761C27.8869 5.72641 27.5132 5.41308 27.1281 5.11854C26.935 4.97241 26.7374 4.83254 26.5326 4.70908C26.3288 4.58668 26.1149 4.47321 25.8984 4.42134C25.7884 4.39774 25.6898 4.38841 25.5944 4.42881C25.5721 4.44095 25.5609 4.44855 25.5409 4.46108C25.5224 4.47855 25.5012 4.49135 25.4838 4.51175C25.4473 4.54961 25.4146 4.59454 25.3842 4.64214C25.2649 4.83748 25.1942 5.07294 25.1388 5.30708C25.0273 5.77921 24.9868 6.27001 24.9596 6.75814C24.9373 7.24734 24.9373 7.73814 24.9542 8.22828C24.9706 8.71841 25.0064 9.20788 25.0476 9.69655C25.0892 10.1852 25.1434 10.6727 25.204 11.1591C25.2662 11.6452 25.327 12.1313 25.4018 12.6152C25.4768 13.0991 25.5557 13.5819 25.6453 14.062C25.7365 14.5417 25.837 15.0196 25.9605 15.4881C26.0224 15.7221 26.0894 15.9544 26.1674 16.1793C26.2469 16.4012 26.3321 16.6279 26.4433 16.8035L26.1 16.7844L26.4865 16.3345C26.6153 16.1845 26.742 16.0325 26.882 15.8929L27.2921 15.4649C27.429 15.3228 27.5756 15.19 27.7168 15.052C27.86 14.9163 27.9988 14.7756 28.15 14.6485L28.5953 14.2587C28.7453 14.1307 28.9004 14.0087 29.0526 13.8835L29.2824 13.6975L29.5188 13.52C29.6773 13.4029 29.8317 13.2805 29.9934 13.168L30.4776 12.8297L30.9721 12.5075C31.1369 12.4001 31.3068 12.3007 31.4737 12.1969C31.6404 12.0929 31.813 11.9983 31.9822 11.8987C32.1526 11.8009 32.328 11.7116 32.5006 11.6181C32.6761 11.5297 32.8498 11.4387 33.0276 11.3549C33.1949 11.2721 33.3664 11.1983 33.5386 11.1257Z" fill="#666666"/>
<path d="M15.6453 49.9092C17.365 49.2201 19.6581 51.2872 20.8046 54.0433C21.9511 56.7994 28.2585 65.0677 35.8542 63.2762C32.4146 65.8945 26.9137 64.9274 25.2474 64.2409C20.2314 62.1738 18.0815 55.8348 16.0751 55.6969C15.6451 53.6298 15.6453 49.9092 15.6453 49.9092Z" fill="#C1272D"/>
<path d="M15.666 49.9239C15.6833 50.4027 15.7067 50.8815 15.7331 51.3597C15.7605 51.8429 15.7951 52.3254 15.8353 52.807C15.8541 53.0478 15.8764 53.2883 15.9 53.5286C15.9241 53.7687 15.9505 54.0086 15.9811 54.2475C16.0112 54.4866 16.0445 54.7251 16.084 54.9619C16.1048 55.0801 16.1227 55.199 16.146 55.3162L16.2181 55.6673L16.0852 55.5514C16.3731 55.5666 16.6277 55.6918 16.8469 55.8343C17.0669 55.9802 17.2592 56.1523 17.4403 56.331C17.7999 56.691 18.1157 57.0803 18.4247 57.4713C19.0391 58.2558 19.6236 59.0527 20.2404 59.8206C20.5495 60.2037 20.8663 60.5795 21.1967 60.9415C21.5263 61.3042 21.8657 61.657 22.2241 61.9886C22.5809 62.3218 22.9567 62.633 23.3472 62.9226C23.7379 63.2118 24.1476 63.4747 24.5753 63.7029C24.6813 63.7614 24.7911 63.8142 24.8988 63.8679C25.0067 63.919 25.1145 63.9703 25.2301 64.0193C25.4492 64.1161 25.6744 64.1938 25.9069 64.265C26.3715 64.4051 26.8497 64.5122 27.3316 64.5966C28.2959 64.7631 29.2772 64.8507 30.2572 64.8346C31.2363 64.8158 32.2169 64.7074 33.1629 64.4527C34.1076 64.2001 35.0164 63.7949 35.8059 63.2129L35.8725 63.3538C35.3361 63.4703 34.792 63.5515 34.2441 63.5795C33.6967 63.6098 33.1467 63.591 32.6031 63.5241C32.0595 63.4583 31.5193 63.3579 30.9924 63.2085C30.4653 63.0609 29.9459 62.8834 29.4429 62.6661C28.4331 62.2402 27.478 61.6881 26.5843 61.0526C25.692 60.4146 24.8533 59.7002 24.0853 58.9162C23.6984 58.5269 23.3332 58.1167 22.98 57.6967C22.6267 57.2767 22.2943 56.8393 21.9772 56.3909C21.662 55.9409 21.3621 55.4795 21.0931 54.9975C20.9592 54.7553 20.8341 54.5114 20.7195 54.2527L20.5612 53.8778C20.5061 53.7558 20.4533 53.6325 20.3933 53.5126C20.1589 53.0307 19.8935 52.5625 19.5847 52.1235C19.2785 51.683 18.9285 51.2726 18.5377 50.9065C18.1433 50.5465 17.708 50.2223 17.2148 50.0166C16.7309 49.8105 16.1755 49.7469 15.666 49.9239ZM15.6388 49.8903C15.8875 49.7825 16.1707 49.727 16.4472 49.7327C16.7259 49.7366 17.0015 49.7979 17.2629 49.891C17.7871 50.0798 18.2596 50.3891 18.6765 50.7514C19.0925 51.1162 19.4664 51.5273 19.7963 51.9701C20.1273 52.4119 20.4216 52.8821 20.6695 53.3761C20.7949 53.6198 20.908 53.8803 21.0157 54.1239C21.1257 54.3611 21.2529 54.6002 21.3864 54.8319C21.6535 55.2977 21.95 55.7489 22.2632 56.1878C22.5771 56.6266 22.9112 57.051 23.2551 57.4671C23.5999 57.8827 23.9624 58.2831 24.334 58.6749C24.7057 59.0666 25.0956 59.4409 25.4933 59.8062C25.8931 60.1694 26.3087 60.5154 26.7383 60.843C27.5992 61.4955 28.5213 62.0722 29.5061 62.5218C30.4915 62.9671 31.5411 63.2815 32.6171 63.4026C33.1545 63.4635 33.6969 63.4769 34.2361 63.4419C34.7751 63.4066 35.3121 63.3302 35.8359 63.1987C35.8785 63.1879 35.9216 63.2138 35.9323 63.2563C35.9403 63.2878 35.9281 63.3197 35.9041 63.3383L35.9025 63.3397C35.1103 63.9573 34.1876 64.3937 33.2283 64.6821C32.2669 64.9701 31.2664 65.1175 30.2655 65.1515C29.264 65.1851 28.2596 65.1237 27.27 64.9601C26.7749 64.8789 26.2832 64.775 25.7972 64.6343C25.5553 64.5634 25.3103 64.4817 25.0749 64.381C24.9617 64.3347 24.8449 64.2814 24.7283 64.2278C24.6137 64.1725 24.4995 64.119 24.3877 64.0593C23.9383 63.8265 23.5083 63.5578 23.0989 63.2626C22.6888 62.9683 22.3028 62.6427 21.9339 62.3014C21.1944 61.619 20.5352 60.8603 19.9184 60.0771C19.6105 59.6849 19.3089 59.2889 19.0171 58.8875C18.724 58.4869 18.4349 58.0849 18.1391 57.691C17.8427 57.2981 17.5407 56.9098 17.2069 56.561C17.0395 56.3881 16.8636 56.2247 16.6729 56.0925C16.4828 55.9617 16.2759 55.8619 16.0652 55.8426L16.0564 55.8418C15.9923 55.8359 15.9425 55.7873 15.9323 55.7267L15.8711 55.3637C15.8516 55.2427 15.8377 55.1214 15.8208 55.0003C15.7895 54.7582 15.7643 54.5158 15.7427 54.2734C15.7204 54.031 15.7024 53.7886 15.6869 53.5461C15.6717 53.3037 15.6581 53.0611 15.6477 52.8187C15.626 52.3337 15.6188 51.8485 15.614 51.3637C15.6096 50.8787 15.6115 50.3939 15.6253 49.9093C15.6256 49.9009 15.6307 49.8938 15.6379 49.8907L15.6388 49.8903Z" fill="black"/>
<path d="M18.7982 71.8201C22.2378 72.9225 27.1105 71.131 28.5437 68.6506C28.8304 71.6822 24.1009 75.2652 20.2314 75.9542C19.5148 74.3006 18.7982 71.8201 18.7982 71.8201Z" fill="#C1272D"/>
<path d="M18.8317 71.8535L19.193 72.843C19.2578 73.0135 19.3158 73.1862 19.3816 73.3562L19.5762 73.8666L19.7706 74.3766C19.8041 74.4611 19.833 74.5475 19.8709 74.6301L19.9772 74.8805L20.3976 75.8823L20.1997 75.7761L20.5536 75.6985L20.9044 75.6067L21.2521 75.5026L21.597 75.3891C21.8254 75.3086 22.0524 75.2234 22.276 75.1295C22.499 75.0349 22.7225 74.9402 22.9414 74.8355C23.0518 74.7851 23.161 74.7323 23.2688 74.6765C23.3772 74.6218 23.486 74.5679 23.592 74.5086C23.8072 74.3962 24.0188 74.2769 24.2285 74.1542L24.54 73.9649L24.846 73.7667C25.0472 73.6305 25.2468 73.4917 25.4408 73.3454C25.6352 73.1997 25.825 73.0479 26.0114 72.8923C26.1061 72.8161 26.197 72.7357 26.2876 72.6547C26.3794 72.5753 26.4684 72.4927 26.5554 72.4081C26.6444 72.3253 26.7309 72.2402 26.8142 72.1522C26.8993 72.0655 26.984 71.9786 27.0646 71.8881C27.1477 71.7994 27.2284 71.7089 27.3048 71.6147L27.4218 71.4753L27.532 71.3306C27.6073 71.2353 27.677 71.1362 27.7438 71.035C27.8144 70.9359 27.875 70.8313 27.9373 70.7271C28.0617 70.5189 28.1654 70.2998 28.2597 70.0763C28.342 69.8491 28.4158 69.6171 28.4524 69.3779C28.498 69.1398 28.4957 68.8969 28.4838 68.6563L28.5958 68.6807C28.4766 68.8774 28.3512 69.071 28.204 69.2475C28.062 69.4281 27.9065 69.5975 27.7438 69.7594C27.664 69.8419 27.5772 69.9169 27.4946 69.9971C27.4102 70.0749 27.3213 70.1477 27.2346 70.2233L26.9641 70.437L26.6844 70.6386L26.3965 70.8287L26.1014 71.0081L25.8002 71.1769L25.4928 71.3343L25.1785 71.4777L24.8594 71.6101C24.6441 71.6915 24.427 71.7685 24.2073 71.8374C23.9868 71.9038 23.7646 71.9645 23.5404 72.0166C23.4289 72.0451 23.316 72.0675 23.2033 72.0907C23.0908 72.1151 22.9777 72.1365 22.8638 72.1535C22.7504 72.1729 22.6366 72.1901 22.5222 72.2031C22.4081 72.2178 22.2941 72.233 22.1793 72.2418C21.9505 72.2657 21.7204 72.277 21.4905 72.281C21.2605 72.2849 21.0304 72.2809 20.801 72.2667C20.6864 72.2566 20.5718 72.2491 20.4577 72.237C20.3437 72.2221 20.2296 72.2095 20.1161 72.1927L19.7778 72.1297L19.4434 72.0511L19.1128 71.9558L18.8317 71.8535ZM18.8038 71.8009L19.1365 71.8743L19.4677 71.9343L19.802 71.9783L20.1373 72.0066L20.4728 72.0241C20.5846 72.0277 20.6966 72.0266 20.8082 72.0282C21.032 72.0251 21.2553 72.0198 21.4781 72.0026C21.7008 71.9853 21.9229 71.963 22.1441 71.9334C22.255 71.9209 22.365 71.9019 22.4752 71.8837C22.5854 71.867 22.695 71.8463 22.8044 71.8235C23.0234 71.7819 23.2413 71.7334 23.4573 71.6779C23.6737 71.6239 23.8877 71.5607 24.1004 71.4938C24.3136 71.4286 24.5242 71.3557 24.7334 71.2785L25.0461 71.1598L25.3553 71.0321L25.6617 70.8977L25.9641 70.7537L26.2613 70.599L26.5526 70.4334L26.8376 70.2566L27.1144 70.0671C27.2942 69.9346 27.4733 69.7994 27.638 69.6477C27.719 69.5709 27.8036 69.497 27.8792 69.4146L27.9956 69.2937C28.0333 69.2525 28.0677 69.2083 28.104 69.1658C28.2494 68.9958 28.3748 68.8105 28.4916 68.6205L28.4934 68.6175C28.5106 68.5894 28.5474 68.5807 28.5754 68.5979C28.5925 68.6085 28.6024 68.6265 28.6037 68.645C28.6194 68.8958 28.6232 69.1497 28.5794 69.3975C28.5496 69.6477 28.4788 69.8895 28.4036 70.129C28.3193 70.3651 28.2241 70.5982 28.1077 70.8203C28.0493 70.9313 27.9924 71.0434 27.9254 71.1494C27.862 71.2575 27.7972 71.365 27.7258 71.4679L27.6214 71.6246L27.5102 71.7761C27.4373 71.8783 27.3602 71.977 27.2805 72.0737C27.2033 72.1726 27.1221 72.2681 27.0373 72.3602C26.955 72.4547 26.8694 72.5462 26.7816 72.6354C26.6954 72.7263 26.6073 72.8153 26.5162 72.901C26.4265 72.9883 26.3362 73.0751 26.2422 73.1577C26.0584 73.3277 25.8638 73.4853 25.6681 73.641C25.4721 73.7963 25.2702 73.9441 25.0665 74.0893L24.7566 74.3006L24.4409 74.5031C24.2278 74.6342 24.0136 74.7637 23.7936 74.883C23.6845 74.9443 23.5725 75.0002 23.4609 75.0569C23.3498 75.1149 23.2374 75.1697 23.1236 75.2221C22.898 75.3306 22.6681 75.4307 22.4346 75.5218C22.2016 75.6143 21.965 75.6978 21.7269 75.7766L21.367 75.8873L21.0026 75.9831L20.6346 76.0651L20.2632 76.1325L20.2536 76.1342C20.1717 76.1491 20.0928 76.1019 20.0653 76.0262L19.6874 74.9901L19.5942 74.731C19.5618 74.645 19.5389 74.5562 19.5113 74.4689L19.352 73.9433L19.1928 73.4181C19.1372 73.2439 19.0945 73.0658 19.0473 72.8891L18.9081 72.3587C18.8602 72.1825 18.8216 72.0033 18.779 71.8257C18.7764 71.8146 18.7832 71.8035 18.7942 71.8009C18.7973 71.8002 18.8009 71.8003 18.8038 71.8009Z" fill="black"/>
<path d="M66.4179 11.1321C66.4179 11.1321 72.8668 3.89769 74.3715 4.31116C75.8763 4.72449 74.8015 15.2661 73.7267 16.9196C70.5022 12.9924 66.4179 11.1321 66.4179 11.1321Z" fill="#B3B3B3"/>
<path d="M66.4526 11.1257C66.6249 11.1982 66.7965 11.2721 66.9637 11.3549C67.1414 11.4386 67.3152 11.5297 67.4908 11.6181C67.6633 11.7116 67.8386 11.8009 68.009 11.8986C68.1784 11.9982 68.3509 12.0929 68.5177 12.1969C68.6845 12.3006 68.8545 12.4001 69.0192 12.5076L69.5138 12.8297L69.998 13.1681C70.1597 13.2805 70.314 13.4029 70.4725 13.52L70.7089 13.6974L70.9388 13.8836C71.0909 14.0086 71.246 14.1306 71.396 14.2586L71.8413 14.6485C71.9925 14.7756 72.1313 14.9162 72.2746 15.0521C72.4158 15.19 72.5622 15.3228 72.6993 15.465L73.1094 15.8929C73.2494 16.0325 73.3761 16.1845 73.5049 16.3345L73.8913 16.7844L73.548 16.8034C73.6593 16.6278 73.7445 16.4012 73.824 16.1793C73.9018 15.9544 73.9689 15.7222 74.0309 15.4881C74.1544 15.0196 74.2548 14.5417 74.346 14.0621C74.4357 13.5818 74.5145 13.099 74.5894 12.6152C74.6642 12.1313 74.725 11.6452 74.7873 11.159C74.8478 10.6726 74.9021 10.1852 74.9438 9.69651C74.985 9.20784 75.0206 8.71837 75.037 8.22824C75.0541 7.73811 75.0541 7.24744 75.0318 6.75811C75.0046 6.26997 74.964 5.77917 74.8525 5.30704C74.797 5.07291 74.7265 4.83744 74.607 4.64211C74.5768 4.59464 74.5441 4.54958 74.5074 4.51184C74.4901 4.49131 74.4689 4.47851 74.4505 4.46117C74.4304 4.44851 74.4193 4.4409 74.397 4.42877C74.3014 4.38837 74.203 4.39771 74.093 4.42131C73.8764 4.47317 73.6625 4.58664 73.4586 4.70904C73.254 4.83264 73.0564 4.97237 72.8632 5.11864C72.4781 5.41304 72.1044 5.72638 71.7369 6.04758C71.3684 6.36771 71.0065 6.69704 70.6458 7.02811C69.9284 7.69478 69.2245 8.37824 68.5246 9.0669L66.4526 11.1257ZM66.403 11.1188C66.7094 10.7326 67.0317 10.3608 67.3516 9.98624C67.674 9.61397 68.0018 9.24637 68.3361 8.88464C68.6697 8.52224 69.008 8.16397 69.3534 7.81237C69.697 7.4589 70.0481 7.11264 70.4061 6.77277C70.7626 6.43144 71.128 6.09851 71.5054 5.77811C71.8838 5.45918 72.2724 5.14984 72.687 4.87184C72.8938 4.7325 73.1058 4.59891 73.329 4.48037C73.5525 4.36317 73.7842 4.2525 74.0505 4.2037C74.1169 4.19224 74.1862 4.18477 74.2586 4.19011C74.2942 4.19051 74.3309 4.19651 74.3678 4.20558L74.3953 4.21157C74.3889 4.20917 74.4112 4.21677 74.4112 4.21677L74.4165 4.21904L74.427 4.22344L74.4696 4.24144C74.624 4.32117 74.6953 4.43637 74.7629 4.55184C74.8854 4.78637 74.9444 5.03197 74.9961 5.27597C75.0896 5.76624 75.129 6.25931 75.1524 6.75224C75.178 7.24504 75.1822 7.73811 75.181 8.23091C75.1788 9.21678 75.1388 10.2025 75.068 11.1868C75.0337 11.679 74.9812 12.1697 74.925 12.6604C74.8692 13.1509 74.7992 13.6401 74.717 14.1281C74.6341 14.616 74.542 15.1029 74.4244 15.5877C74.3653 15.8301 74.3008 16.072 74.2225 16.3132C74.1418 16.555 74.0554 16.7936 73.9053 17.0357C73.8444 17.1341 73.715 17.1645 73.6166 17.1034C73.5984 17.0921 73.5825 17.0784 73.569 17.063L73.562 17.0548L73.1825 16.6154C73.0568 16.4681 72.93 16.3221 72.7964 16.182L72.4012 15.756C72.269 15.6144 72.1274 15.4818 71.991 15.3442C71.8532 15.2081 71.7173 15.0697 71.5733 14.9397L71.1472 14.5434C71.0034 14.4132 70.8545 14.2888 70.7084 14.1609L70.4882 13.9701L70.2628 13.7857C70.1114 13.6641 69.9641 13.5369 69.8092 13.4194L69.3476 13.0628L68.8776 12.7166C68.7208 12.601 68.5588 12.4932 68.3994 12.381C68.2402 12.2685 68.0752 12.1653 67.913 12.0568L67.4212 11.74C67.0893 11.5353 66.753 11.3357 66.4096 11.1502C66.3994 11.1449 66.3954 11.1322 66.4009 11.122C66.4014 11.1209 66.4022 11.1197 66.403 11.1188Z" fill="#666666"/>
<path d="M20.1503 42.4802C23.396 42.8981 37.2379 41.5757 42.612 56.5048C38.6847 57.6357 32.6905 56.0524 29.7968 52.6594C26.9031 49.2665 24.2843 43.8374 20.1503 42.4802Z" fill="#C1272D"/>
<path d="M20.1503 42.4802C20.7121 42.6554 21.25 42.9068 21.7557 43.2106C22.2609 43.5161 22.7339 43.8737 23.1796 44.2608C24.0712 45.0372 24.8555 45.9273 25.5932 46.8466C26.3277 47.7701 27.0115 48.7302 27.7009 49.6826C28.0455 50.1589 28.3911 50.634 28.7449 51.1016C29.0999 51.5702 29.4591 52.027 29.8411 52.4734C30.0316 52.6918 30.238 52.894 30.4351 53.105C30.6435 53.305 30.8683 53.4885 31.0836 53.681C31.3116 53.8592 31.5468 54.0288 31.7777 54.2033C32.0184 54.3645 32.2661 54.516 32.5099 54.6728C32.7612 54.8174 33.0193 54.9509 33.2736 55.0906C33.5331 55.2205 33.8004 55.3354 34.0632 55.4588C34.3292 55.5753 34.604 55.6713 34.8739 55.7786C35.008 55.8348 35.1485 55.8733 35.2865 55.9186L35.702 56.0508C36.2595 56.2144 36.8251 56.3516 37.3973 56.4516C37.9691 56.5525 38.5467 56.6216 39.1257 56.6508C39.7045 56.6828 40.2847 56.672 40.86 56.6209C41.0047 56.6153 41.1469 56.592 41.2895 56.5698L41.7169 56.5056C41.7887 56.4972 41.8588 56.482 41.9283 56.4637L42.1377 56.4132L42.5567 56.3126L42.4239 56.5724L42.1039 55.7473C41.9972 55.4722 41.8953 55.195 41.7675 54.9292L41.4028 54.1232C41.3453 53.9873 41.2743 53.8581 41.2061 53.7274L41.0012 53.3357C40.7415 52.8056 40.4215 52.3101 40.1217 51.8029C39.9633 51.5546 39.7912 51.3156 39.6267 51.0713C39.5427 50.9504 39.462 50.8269 39.3753 50.7081L39.1041 50.3594L38.8331 50.0108L38.6976 49.8365C38.6511 49.7794 38.6009 49.7256 38.5528 49.6698L37.9693 49.0069C37.5571 48.5872 37.1489 48.1618 36.7 47.7802L36.37 47.4869L36.0237 47.2129C35.7925 47.0308 35.5655 46.8429 35.3212 46.6781L34.9611 46.4224C34.8416 46.3361 34.7215 46.2509 34.5951 46.175C34.3448 46.0198 34.0989 45.8568 33.8448 45.7076L33.0724 45.2766L32.2789 44.8846C32.0104 44.7624 31.7384 44.6476 31.4681 44.5286C31.1955 44.4156 30.9175 44.3152 30.6423 44.2078C30.3652 44.1052 30.0828 44.0174 29.8032 43.9214C29.522 43.8304 29.2364 43.7533 28.9531 43.6685C28.668 43.5898 28.3799 43.5216 28.0933 43.4476L27.2259 43.2572C26.9348 43.2032 26.6447 43.143 26.3524 43.0938C26.0596 43.0486 25.768 42.9938 25.4737 42.9573C24.8868 42.8726 24.2965 42.8092 23.7053 42.7546C23.114 42.7026 22.5213 42.6606 21.928 42.6257C21.3353 42.5848 20.7397 42.5576 20.1503 42.4802ZM20.1503 42.4802C20.7424 42.5376 21.3367 42.5445 21.9309 42.5654C22.5251 42.5842 23.1195 42.6121 23.7135 42.649C24.3073 42.6886 24.9012 42.7374 25.4929 42.8077C25.7895 42.8369 26.0839 42.8845 26.3796 42.9225C26.6747 42.9646 26.9683 43.0177 27.2629 43.0648C27.5557 43.1214 27.8483 43.1805 28.1404 43.2417C28.4305 43.3118 28.7221 43.3762 29.0112 43.4512C29.2985 43.5324 29.5883 43.6058 29.874 43.6934C30.158 43.786 30.4449 43.8705 30.7269 43.97C31.0071 44.0742 31.29 44.1716 31.568 44.2818C31.8437 44.3981 32.1212 44.5102 32.3955 44.6301L33.2068 45.0156L33.9984 45.4413C34.2591 45.5889 34.5117 45.7506 34.7688 45.9049C34.8987 45.9802 35.0223 46.065 35.1452 46.1508L35.516 46.4057C35.7677 46.5696 35.9987 46.7617 36.2357 46.9456L36.59 47.2232L36.928 47.5202C37.3875 47.9072 37.806 48.3382 38.2283 48.7645L38.8265 49.437C38.8759 49.4936 38.9273 49.5482 38.9749 49.6062L39.114 49.783L39.392 50.1369L39.67 50.4908C39.7591 50.6114 39.8419 50.7365 39.928 50.8593C40.0968 51.107 40.2735 51.35 40.4359 51.6018C40.7439 52.1161 41.0719 52.6194 41.3388 53.1566L41.5492 53.554C41.6191 53.6865 41.6919 53.8176 41.7511 53.9553L42.1257 54.7721C42.2569 55.0418 42.3617 55.3224 42.4715 55.601L42.8 56.437L42.8015 56.4406C42.84 56.539 42.7916 56.65 42.6933 56.6886C42.6851 56.6918 42.6756 56.6948 42.6672 56.6968L42.2277 56.8002L42.008 56.8518C41.9351 56.8705 41.8616 56.886 41.7869 56.8945L41.3417 56.9593C41.1933 56.9814 41.0451 57.0046 40.8955 57.0098C40.2988 57.06 39.7001 57.0677 39.1049 57.0317C38.5093 56.9986 37.9171 56.9248 37.3316 56.8182C36.7455 56.7128 36.1672 56.5693 35.5972 56.3989L35.1725 56.2613C35.0315 56.2142 34.8881 56.1738 34.7508 56.1158C34.4748 56.0046 34.1941 55.9046 33.9223 55.784C33.6532 55.6564 33.3803 55.537 33.1148 55.4024C32.8543 55.2578 32.5904 55.1194 32.3331 54.9694C32.0829 54.807 31.8293 54.65 31.5825 54.4828C31.3456 54.301 31.1025 54.1273 30.8712 53.9386C30.6511 53.7362 30.4225 53.5432 30.2101 53.333C30.0091 53.1116 29.7981 52.8978 29.6059 52.67C29.2299 52.2166 28.8687 51.7428 28.5211 51.2682C28.1724 50.7922 27.8332 50.3106 27.4957 49.8286C26.8213 48.8642 26.1524 47.8984 25.4393 46.9666C24.7292 46.0341 23.9737 45.1317 23.1095 44.3396C22.2465 43.5521 21.2641 42.8708 20.1503 42.4802Z" fill="black"/>
<path d="M27.9365 45.8735C27.9365 45.8735 37.514 47.0154 40.6144 55.1584C35.2403 55.837 31.4504 52.207 27.9365 45.8735Z" fill="black"/>
<path d="M27.9365 45.8735C27.9365 45.8735 37.514 47.0154 40.6144 55.1584C35.2403 55.837 31.4504 52.207 27.9365 45.8735Z" stroke="black" stroke-width="0.4" stroke-miterlimit="10"/>
<path d="M37.1558 43.8238C38.5338 43.9746 42.6679 45.7843 42.8058 47.7447C42.9435 49.7052 42.8058 53.0228 42.8058 53.0228C42.8058 53.0228 39.2228 45.4826 37.1558 43.8238Z" fill="#CCCCCC"/>
<path d="M79.8411 42.4802C76.5953 42.8981 62.7535 41.5757 57.3793 56.5048C61.3067 57.6357 67.3008 56.0524 70.1945 52.6594C73.0883 49.2665 75.7071 43.8374 79.8411 42.4802Z" fill="#C1272D"/>
<path d="M79.8411 42.4802C78.7272 42.8708 77.7448 43.5521 76.8819 44.3396C76.0176 45.1317 75.2621 46.0341 74.552 46.9666C73.8389 47.8984 73.17 48.8642 72.4956 49.8286C72.1581 50.3106 71.8189 50.7922 71.4703 51.2682C71.1225 51.7428 70.7615 52.2166 70.3855 52.67C70.1932 52.8978 69.9823 53.1116 69.7812 53.333C69.5688 53.5432 69.3403 53.7362 69.1201 53.9386C68.8888 54.1273 68.6457 54.301 68.4088 54.4828C68.162 54.65 67.9084 54.807 67.6583 54.9694C67.4009 55.1194 67.1369 55.2578 66.8765 55.4024C66.6111 55.537 66.3381 55.6564 66.0691 55.784C65.7972 55.9046 65.5165 56.0046 65.2404 56.1158C65.1032 56.1738 64.9599 56.2142 64.8188 56.2613L64.3941 56.3989C63.8241 56.5693 63.2459 56.7128 62.6597 56.8182C62.0743 56.9248 61.482 56.9986 60.8864 57.0317C60.2911 57.0677 59.6925 57.06 59.0959 57.0098C58.9463 57.0046 58.798 56.9814 58.6496 56.9593L58.2043 56.8945C58.1297 56.886 58.0563 56.8705 57.9832 56.8518L57.7635 56.8002L57.3241 56.6968C57.2212 56.6726 57.1576 56.5696 57.1817 56.4668C57.1837 56.4581 57.1864 56.4497 57.1895 56.4417L57.1913 56.437L57.5197 55.601C57.6295 55.3224 57.7344 55.0418 57.8656 54.7721L58.2401 53.9553C58.2993 53.8176 58.3723 53.6865 58.4421 53.554L58.6525 53.1566C58.9195 52.6194 59.2475 52.1161 59.5555 51.6018C59.7179 51.35 59.8945 51.107 60.0633 50.8593C60.1495 50.7365 60.2323 50.6114 60.3212 50.4908L60.5993 50.1369L60.8773 49.783L61.0164 49.6062C61.064 49.5482 61.1155 49.4936 61.1648 49.437L61.7631 48.7645C62.1853 48.3382 62.6037 47.9072 63.0633 47.5202L63.4013 47.2232L63.7556 46.9456C63.9927 46.7617 64.2236 46.5696 64.4753 46.4057L64.8461 46.1508C64.9691 46.065 65.0927 45.9802 65.2225 45.9049C65.4796 45.7506 65.7323 45.5889 65.9929 45.4413L66.7844 45.0156L67.5959 44.6301C67.8701 44.5102 68.1476 44.3981 68.4232 44.2818C68.7013 44.1716 68.9843 44.0742 69.2644 43.97C69.5464 43.8705 69.8333 43.786 70.1173 43.6934C70.4029 43.6058 70.6928 43.5324 70.9801 43.4512C71.2692 43.3762 71.5608 43.3118 71.8509 43.2417C72.1431 43.1805 72.4356 43.1214 72.7284 43.0648C73.0231 43.0177 73.3167 42.9646 73.6117 42.9225C73.9075 42.8845 74.2017 42.8369 74.4984 42.8077C75.0901 42.7374 75.684 42.6886 76.2779 42.649C76.8719 42.6121 77.4661 42.5842 78.0604 42.5654C78.6547 42.5445 79.249 42.5376 79.8411 42.4802ZM79.8411 42.4802C79.2516 42.5576 78.656 42.5848 78.0633 42.6257C77.47 42.6606 76.8773 42.7026 76.286 42.7546C75.6948 42.8092 75.1045 42.8726 74.5176 42.9573C74.2233 42.9938 73.9317 43.0486 73.6389 43.0938C73.3467 43.143 73.0565 43.2032 72.7653 43.2572L71.898 43.4476C71.6115 43.5216 71.3233 43.5898 71.0383 43.6685C70.7549 43.7533 70.4693 43.8304 70.1881 43.9214C69.9085 44.0174 69.6261 44.1052 69.3491 44.2078C69.0739 44.3152 68.7959 44.4156 68.5232 44.5286C68.2529 44.6476 67.9809 44.7624 67.7124 44.8846L66.9189 45.2766L66.1464 45.7076C65.8924 45.8568 65.6465 46.0198 65.3963 46.175C65.2699 46.2509 65.1497 46.3361 65.0303 46.4224L64.6701 46.6781C64.4257 46.8429 64.1988 47.0308 63.9676 47.2129L63.6213 47.4869L63.2913 47.7802C62.8424 48.1618 62.4343 48.5872 62.022 49.0069L61.4385 49.6698C61.3904 49.7256 61.3401 49.7794 61.2937 49.8365L61.1583 50.0108L60.8872 50.3594L60.616 50.7081C60.5293 50.8269 60.4487 50.9504 60.3647 51.0713C60.2001 51.3156 60.0279 51.5546 59.8696 51.8029C59.5699 52.3101 59.2499 52.8056 58.9901 53.3357L58.7852 53.7274C58.7171 53.8581 58.646 53.9873 58.5885 54.1232L58.2239 54.9292C58.096 55.195 57.9941 55.4722 57.8875 55.7473L57.5675 56.5724L57.4347 56.3126L57.8536 56.4132L58.0629 56.4637C58.1325 56.482 58.2027 56.4972 58.2744 56.5056L58.7019 56.5698C58.8443 56.592 58.9867 56.6153 59.1313 56.6209C59.7067 56.672 60.2868 56.6828 60.8656 56.6508C61.4447 56.6216 62.0223 56.5525 62.594 56.4516C63.1663 56.3516 63.7319 56.2144 64.2893 56.0508L64.7048 55.9186C64.8428 55.8733 64.9833 55.8348 65.1175 55.7786C65.3873 55.6713 65.6621 55.5753 65.9281 55.4588C66.1909 55.3354 66.4583 55.2205 66.7177 55.0906C66.972 54.9509 67.2301 54.8174 67.4815 54.6728C67.7252 54.516 67.9729 54.3645 68.2136 54.2033C68.4445 54.0288 68.6797 53.8592 68.9077 53.681C69.1231 53.4885 69.3479 53.305 69.5563 53.105C69.7533 52.894 69.9597 52.6918 70.1503 52.4734C70.5323 52.027 70.8915 51.5702 71.2464 51.1016C71.6003 50.634 71.9459 50.1589 72.2904 49.6826C72.9799 48.7302 73.6636 47.7701 74.3981 46.8466C75.1359 45.9273 75.9201 45.0372 76.8117 44.2608C77.2575 43.8737 77.7304 43.5161 78.2356 43.2106C78.7413 42.9068 79.2792 42.6554 79.8411 42.4802Z" fill="black"/>
<path d="M72.0548 45.8735C72.0548 45.8735 62.4774 47.0154 59.377 55.1584C64.7511 55.837 68.541 52.207 72.0548 45.8735Z" fill="black"/>
<path d="M72.0548 45.8735C72.0548 45.8735 62.4774 47.0154 59.377 55.1584C64.7511 55.837 68.541 52.207 72.0548 45.8735Z" stroke="black" stroke-width="0.4" stroke-miterlimit="10"/>
<path d="M62.8355 43.8238C61.4575 43.9746 57.3234 45.7843 57.1855 47.7447C57.0478 49.7052 57.1855 53.0228 57.1855 53.0228C57.1855 53.0228 60.7685 45.4826 62.8355 43.8238Z" fill="#CCCCCC"/>
<path d="M84.346 49.9092C82.6263 49.2201 80.3332 51.2872 79.1867 54.0433C78.0402 56.7994 71.7328 65.0677 64.1371 63.2762C67.5767 65.8945 73.0776 64.9274 74.7439 64.2409C79.7599 62.1738 81.9098 55.8348 83.9162 55.6969C84.3462 53.6298 84.346 49.9092 84.346 49.9092Z" fill="#C1272D"/>
<path d="M84.366 49.9092C84.3799 50.394 84.3818 50.8786 84.3774 51.3636C84.3726 51.8485 84.3654 52.3337 84.3436 52.8186C84.3332 53.0612 84.3196 53.3036 84.3044 53.5461C84.289 53.7885 84.2709 54.0309 84.2487 54.2733C84.2271 54.5157 84.2019 54.7581 84.1704 55.0004C84.1535 55.1213 84.1398 55.2426 84.1202 55.3636L84.0591 55.7266C84.0484 55.7901 83.9963 55.8361 83.9351 55.8418L83.9262 55.8426C83.7155 55.862 83.5084 55.9617 83.3184 56.0925C83.1278 56.2248 82.9519 56.3881 82.7844 56.5609C82.4507 56.9097 82.1487 57.2981 81.8523 57.6909C81.5564 58.0849 81.2674 58.4869 80.9743 58.8874C80.6823 59.2888 80.3808 59.6849 80.073 60.0772C79.4562 60.8604 78.797 61.6189 78.0575 62.3013C77.6886 62.6428 77.3026 62.9682 76.8924 63.2625C76.4831 63.5578 76.0531 63.8265 75.6036 64.0592C75.4919 64.1189 75.3776 64.1724 75.2631 64.2277C75.1464 64.2813 75.0296 64.3348 74.9164 64.381C74.6811 64.4817 74.436 64.5633 74.1942 64.6342C73.7082 64.7749 73.2164 64.8789 72.7214 64.96C71.7318 65.1237 70.7274 65.185 69.7259 65.1516C68.7248 65.1176 67.7244 64.97 66.7631 64.6821C65.8038 64.3936 64.8811 63.9572 64.0888 63.3397L64.0872 63.3384C64.0526 63.3114 64.0464 63.2614 64.0734 63.2269C64.0934 63.2013 64.1259 63.1913 64.1555 63.1986C64.6792 63.3302 65.2163 63.4065 65.7551 63.442C66.2943 63.4769 66.8368 63.4636 67.3743 63.4025C68.4503 63.2814 69.4999 62.967 70.4851 62.5218C71.47 62.0721 72.3922 61.4954 73.2531 60.843C73.6827 60.5153 74.0983 60.1694 74.498 59.8061C74.8958 59.4408 75.2855 59.0666 75.6574 58.6749C76.0288 58.2832 76.3915 57.8828 76.7362 57.467C77.0802 57.0509 77.4143 56.6265 77.728 56.1877C78.0414 55.7488 78.3379 55.2976 78.6049 54.8318C78.7384 54.6002 78.8656 54.361 78.9756 54.1238C79.0834 53.8802 79.1964 53.6198 79.3219 53.3761C79.5696 52.8821 79.864 52.412 80.1951 51.97C80.525 51.5272 80.8988 51.1162 81.3148 50.7514C81.7318 50.3892 82.2043 50.0797 82.7284 49.8909C82.9899 49.7978 83.2655 49.7366 83.5441 49.7328C83.8207 49.7269 84.1039 49.7824 84.3526 49.8902L84.3535 49.8906C84.3612 49.894 84.3658 49.9013 84.366 49.9092ZM84.3254 49.9238C83.8159 49.7468 83.2604 49.8105 82.7766 50.0166C82.2834 50.2222 81.848 50.5465 81.4536 50.9064C81.0627 51.2725 80.7128 51.6829 80.4067 52.1236C80.0979 52.5624 79.8324 53.0308 79.598 53.5126C79.538 53.6324 79.4852 53.7557 79.4302 53.8778L79.2718 54.2526C79.1572 54.5113 79.0322 54.7552 78.8982 54.9976C78.6292 55.4796 78.3294 55.9409 78.0142 56.3908C77.6971 56.8392 77.3647 57.2766 77.0114 57.6966C76.6582 58.1166 76.293 58.5268 75.906 58.9161C75.138 59.7002 74.2994 60.4146 73.4071 61.0525C72.5134 61.688 71.5583 62.2401 70.5484 62.6661C70.0455 62.8833 69.526 63.0608 68.999 63.2084C68.4719 63.3578 67.9319 63.4582 67.3883 63.5241C66.8447 63.591 66.2947 63.6097 65.7472 63.5794C65.1994 63.5514 64.6551 63.4702 64.1188 63.3538L64.1855 63.2128C64.975 63.7948 65.8838 64.2001 66.8284 64.4526C67.7743 64.7073 68.7551 64.8158 69.7342 64.8345C70.7142 64.8508 71.6955 64.7632 72.6598 64.5965C73.1416 64.5121 73.6199 64.4052 74.0844 64.265C74.317 64.1937 74.5422 64.1161 74.7612 64.0193C74.8768 63.9704 74.9847 63.919 75.0926 63.868C75.2003 63.8141 75.31 63.7613 75.416 63.7029C75.8438 63.4746 76.2535 63.2117 76.6442 62.9225C77.0347 62.6329 77.4104 62.3218 77.7672 61.9885C78.1256 61.657 78.4651 61.3042 78.7947 60.9416C79.1251 60.5794 79.4419 60.2037 79.751 59.8205C80.3678 59.0528 80.9523 58.2557 81.5667 57.4712C81.8756 57.0802 82.1915 56.6909 82.5511 56.3309C82.7322 56.1522 82.9243 55.9801 83.1444 55.8342C83.3636 55.6918 83.6183 55.5665 83.9062 55.5513L83.7732 55.6672L83.8454 55.3162C83.8687 55.1989 83.8865 55.08 83.9073 54.9618C83.9467 54.7252 83.9802 54.4865 84.0103 54.2476C84.0408 54.0085 84.0672 53.7688 84.0912 53.5285C84.115 53.2884 84.1372 53.0478 84.156 52.8069C84.1963 52.3253 84.2308 51.8428 84.2583 51.3597C84.2847 50.8816 84.3079 50.4028 84.3254 49.9238Z" fill="black"/>
<path d="M81.1931 71.8201C77.7535 72.9225 72.8808 71.131 71.4476 68.6506C71.1609 71.6822 75.8904 75.2652 79.7599 75.9542C80.4765 74.3006 81.1931 71.8201 81.1931 71.8201Z" fill="#C1272D"/>
<path d="M81.2123 71.8257C81.1698 72.0033 81.1311 72.1825 81.0832 72.3587L80.944 72.8891C80.8968 73.0658 80.8541 73.2439 80.7985 73.4181L80.6395 73.9433L80.48 74.4689C80.4524 74.5562 80.4295 74.645 80.3972 74.731L80.3039 74.9901L79.926 76.0262C79.8975 76.1045 79.8171 76.1487 79.7378 76.1343L79.7281 76.1325L79.3567 76.0651L78.9887 75.9831L78.6243 75.8871L78.2644 75.7766C78.0263 75.6978 77.7898 75.6142 77.5567 75.5218C77.3232 75.4307 77.0934 75.3306 76.8678 75.2221C76.7539 75.1697 76.6415 75.1147 76.5304 75.0569C76.419 75.0002 76.3068 74.9442 76.1978 74.8829C75.9778 74.7637 75.7635 74.6342 75.5504 74.5031L75.2347 74.3006L74.9248 74.0891C74.7211 73.9441 74.5192 73.7963 74.3232 73.641C74.1276 73.4853 73.9331 73.3277 73.7491 73.1577C73.6551 73.0751 73.5648 72.9883 73.4751 72.901C73.384 72.8153 73.2959 72.7263 73.2098 72.6353C73.1219 72.5462 73.0363 72.4547 72.954 72.3602C72.8692 72.2681 72.788 72.1726 72.7108 72.0737C72.6311 71.977 72.554 71.8783 72.4811 71.7761L72.3699 71.6246L72.2656 71.4679C72.1941 71.365 72.1294 71.2575 72.0659 71.1494C71.999 71.0434 71.942 70.9313 71.8838 70.8203C71.7672 70.5981 71.672 70.365 71.5878 70.129C71.5126 69.8895 71.4418 69.6477 71.412 69.3975C71.3682 69.1495 71.3719 68.8958 71.3876 68.645C71.3897 68.6121 71.418 68.5871 71.4508 68.5893C71.4708 68.5905 71.4879 68.6014 71.4978 68.6171L71.4998 68.6205C71.6166 68.8105 71.7419 68.9958 71.8874 69.1658C71.9236 69.2083 71.958 69.2525 71.9958 69.2937L72.1121 69.4146C72.1877 69.497 72.2723 69.5709 72.3535 69.6477C72.5182 69.7993 72.6971 69.9346 72.877 70.0671L73.1538 70.2566L73.4387 70.4334L73.73 70.599L74.0272 70.7537L74.3296 70.8977L74.636 71.0321L74.9452 71.1598L75.2579 71.2785C75.4671 71.3557 75.6777 71.4286 75.8909 71.4938C76.1036 71.5607 76.3176 71.6239 76.534 71.6779C76.75 71.7333 76.9679 71.7819 77.1869 71.8235C77.2963 71.8462 77.4059 71.867 77.5161 71.8837C77.6263 71.9019 77.7363 71.9207 77.8472 71.9333C78.0684 71.963 78.2905 71.9853 78.5132 72.0026C78.736 72.0197 78.9594 72.0251 79.1831 72.0281C79.2947 72.0266 79.4068 72.0277 79.5186 72.0241L79.854 72.0066L80.1894 71.9782L80.5236 71.9343L80.8548 71.8743L81.1875 71.8009C81.1985 71.7982 81.2096 71.805 81.2123 71.8161C81.2131 71.8191 81.213 71.8227 81.2123 71.8257ZM81.1596 71.8535L80.8785 71.9558L80.548 72.051L80.2135 72.1297L79.8752 72.1927C79.7618 72.2095 79.6478 72.2221 79.5336 72.237C79.4195 72.2491 79.3049 72.2566 79.1903 72.2666C78.9609 72.2809 78.7308 72.2849 78.501 72.281C78.271 72.277 78.0408 72.2657 77.812 72.2418C77.6972 72.233 77.5832 72.2178 77.4691 72.2031C77.3547 72.1901 77.241 72.1729 77.1275 72.1535C77.0136 72.1365 76.9005 72.1151 76.7881 72.0907C76.6753 72.0675 76.5624 72.0451 76.451 72.0166C76.2267 71.9645 76.0045 71.9038 75.784 71.8374C75.5643 71.7685 75.3472 71.6915 75.1319 71.6101L74.8128 71.4777L74.4986 71.3342L74.1911 71.1769L73.8899 71.0081L73.5949 70.8287L73.3069 70.6386L73.0272 70.437L72.7567 70.2233C72.67 70.1475 72.5811 70.0749 72.4967 69.9971C72.4141 69.9169 72.3275 69.8419 72.2475 69.7594C72.0848 69.5974 71.9294 69.4281 71.7874 69.2475C71.6402 69.071 71.5147 68.8774 71.3955 68.6807L71.5075 68.6563C71.4956 68.8969 71.4934 69.1397 71.539 69.3779C71.5755 69.617 71.6494 69.8491 71.7316 70.0763C71.8259 70.2998 71.9296 70.5189 72.054 70.7271C72.1164 70.8313 72.177 70.9359 72.2475 71.035C72.3143 71.1362 72.384 71.2351 72.4593 71.3306L72.5695 71.4753L72.6866 71.6147C72.763 71.7089 72.8436 71.7994 72.9267 71.8881C73.0073 71.9786 73.092 72.0655 73.1771 72.1521C73.2604 72.2402 73.3469 72.3253 73.4359 72.4081C73.5229 72.4927 73.6119 72.5753 73.7039 72.6547C73.7943 72.7357 73.8852 72.8161 73.9799 72.8923C74.1663 73.0479 74.3562 73.1995 74.5506 73.3454C74.7446 73.4917 74.9442 73.6305 75.1454 73.7667L75.4513 73.9649L75.7628 74.1542C75.9725 74.2769 76.1842 74.3962 76.3994 74.5086C76.5054 74.5678 76.6141 74.6217 76.7225 74.6765C76.8303 74.7323 76.9395 74.7851 77.0499 74.8355C77.2688 74.9402 77.4923 75.0349 77.7153 75.1295C77.9389 75.2234 78.1659 75.3085 78.3943 75.3891L78.7392 75.5026L79.087 75.6067L79.4378 75.6985L79.7916 75.7761L79.5937 75.8822L80.0142 74.8805L80.1204 74.6301C80.1583 74.5475 80.1872 74.461 80.2207 74.3766L80.4151 73.8666L80.6097 73.3561C80.6755 73.1862 80.7336 73.0135 80.7983 72.843L81.1596 71.8535Z" fill="black"/>
<path d="M45.6302 64.3787C45.6302 64.3787 45.6458 64.3791 45.6753 64.3799C45.7034 64.3825 45.7473 64.3824 45.7981 64.3903C45.9029 64.4033 46.0514 64.436 46.2155 64.4949C46.3787 64.5564 46.5631 64.6427 46.7421 64.7636C46.8334 64.8215 46.9214 64.8909 47.0086 64.9639C47.0951 65.0385 47.1785 65.1192 47.2578 65.2056C47.3346 65.2941 47.4109 65.3837 47.4746 65.4829C47.5089 65.5303 47.5407 65.5787 47.5675 65.6311C47.5957 65.6821 47.6241 65.7319 47.6483 65.7828C47.6939 65.8889 47.7367 65.9895 47.763 66.0939C47.7891 66.1981 47.8109 66.2949 47.8146 66.3911C47.817 66.4384 47.8201 66.4827 47.8205 66.5249C47.8178 66.5684 47.8139 66.6096 47.8086 66.6476C47.7998 66.7236 47.7861 66.7876 47.7651 66.8404C47.7487 66.8924 47.7282 66.9316 47.7173 66.9576C47.7053 66.9836 47.6973 66.9969 47.6973 66.9969C47.6973 66.9969 47.6882 66.9837 47.6714 66.9589C47.6567 66.9343 47.6305 66.8995 47.6069 66.8572C47.5851 66.8148 47.5445 66.7671 47.5067 66.7144C47.4885 66.6887 47.4691 66.6613 47.4486 66.6327C47.4261 66.6053 47.4025 66.5767 47.3778 66.5468C47.3349 66.4872 47.2773 66.4271 47.2242 66.3632C47.1726 66.2989 47.1071 66.2352 47.0513 66.1661C46.9861 66.1 46.9285 66.0291 46.8613 65.9584C46.7969 65.8876 46.7319 65.8137 46.6641 65.7415C46.6006 65.6659 46.5298 65.5945 46.4669 65.5179C46.3991 65.4451 46.3378 65.3677 46.2746 65.2944C46.213 65.2197 46.1531 65.1464 46.0971 65.0747C46.0419 65.0017 45.9878 64.9337 45.9409 64.8659C45.8433 64.7333 45.7682 64.6144 45.7143 64.5245C45.685 64.4823 45.6658 64.4428 45.651 64.4187C45.6374 64.3925 45.6302 64.3787 45.6302 64.3787Z" fill="#4D4D4D"/>
<path d="M54.3611 64.3787C54.3611 64.3787 54.3539 64.3925 54.3403 64.4187C54.3255 64.4428 54.3063 64.4823 54.277 64.5245C54.2231 64.6144 54.148 64.7333 54.0504 64.8659C54.0035 64.9337 53.9494 65.0017 53.8942 65.0747C53.8382 65.1464 53.7783 65.2197 53.7167 65.2944C53.6535 65.3677 53.5922 65.4451 53.5244 65.5179C53.4615 65.5945 53.3907 65.6659 53.3272 65.7415C53.2594 65.8137 53.1944 65.8876 53.13 65.9584C53.0628 66.0291 53.0052 66.1 52.94 66.1661C52.8842 66.2352 52.8187 66.2989 52.7671 66.3632C52.714 66.4271 52.6564 66.4872 52.6135 66.5468C52.5888 66.5767 52.5652 66.6053 52.5427 66.6327C52.5222 66.6613 52.5028 66.6887 52.4846 66.7144C52.4468 66.7671 52.4062 66.8148 52.3844 66.8572C52.3607 66.8995 52.3346 66.9343 52.3199 66.9589C52.3031 66.9837 52.294 66.9969 52.294 66.9969C52.294 66.9969 52.286 66.9836 52.2739 66.9576C52.2631 66.9316 52.2426 66.8924 52.2262 66.8404C52.2052 66.7876 52.1915 66.7236 52.1827 66.6476C52.1774 66.6096 52.1735 66.5684 52.1708 66.5249C52.1712 66.4827 52.1743 66.4384 52.1767 66.3911C52.1804 66.2949 52.2022 66.1981 52.2283 66.0939C52.2544 65.9895 52.2974 65.8889 52.343 65.7828C52.3672 65.7319 52.3956 65.6821 52.4238 65.6311C52.4506 65.5787 52.4824 65.5303 52.5167 65.4829C52.5804 65.3837 52.6567 65.2941 52.7335 65.2056C52.8128 65.1192 52.8962 65.0385 52.9827 64.9639C53.0698 64.8909 53.1579 64.8215 53.2492 64.7636C53.4282 64.6427 53.6126 64.5564 53.7758 64.4949C53.9399 64.436 54.0884 64.4033 54.1932 64.3903C54.244 64.3824 54.2879 64.3825 54.316 64.3799C54.3455 64.3791 54.3611 64.3787 54.3611 64.3787Z" fill="#4D4D4D"/>
<path d="M69.2444 77.4701C69.2444 77.4701 69.2712 77.5085 69.3169 77.587C69.3628 77.6657 69.4261 77.786 69.4826 77.9546C69.5394 78.1225 69.5857 78.3406 69.5881 78.6012C69.5917 78.8614 69.5449 79.1632 69.428 79.48C69.1985 80.1088 68.6777 80.818 67.8209 81.2589C67.396 81.4769 66.8873 81.6189 66.341 81.6197C66.0694 81.6197 65.7862 81.5828 65.5137 81.5122C65.2521 81.4445 64.9872 81.3898 64.7116 81.3073C64.4362 81.2297 64.1549 81.1498 63.8752 81.0541C63.592 80.9668 63.3101 80.8576 63.0212 80.7521C62.4493 80.5257 61.8686 80.2626 61.2889 79.9584C60.7086 79.6549 60.1333 79.3058 59.5621 78.9294C58.9898 78.5542 58.4298 78.141 57.8616 77.7326C57.2936 77.3237 56.7182 76.9165 56.116 76.5512C55.5136 76.1864 54.881 75.8709 54.2177 75.6226C53.554 75.3754 52.8576 75.203 52.144 75.1021C51.7869 75.0533 51.4268 75.0165 51.0636 74.9988C50.8828 74.984 50.7001 74.9842 50.518 74.9805C50.3369 74.9762 50.1532 74.9741 49.9642 74.9761L49.8238 74.976L49.6912 74.9769L49.4104 74.9812C49.2245 74.9854 49.0326 74.9832 48.8554 74.9965L48.3144 75.0276L47.772 75.0805C47.052 75.1654 46.3449 75.3048 45.6686 75.5174C44.9924 75.7296 44.3485 76.014 43.7441 76.3624C43.1386 76.7097 42.5705 77.1146 42.0185 77.5377C41.4658 77.96 40.9266 78.397 40.3726 78.799C39.8198 79.2021 39.2569 79.5752 38.6858 79.8993C38.1152 80.2241 37.5385 80.5012 36.969 80.7373C36.3946 80.9613 35.8324 81.1557 35.2833 81.3057C35.011 81.3889 34.7381 81.4452 34.4752 81.5137L34.3726 81.5389L34.2748 81.5592C34.2065 81.5717 34.1313 81.5853 34.0636 81.5932C33.9248 81.6108 33.7868 81.6214 33.6504 81.6208C33.1038 81.6198 32.5952 81.4777 32.1701 81.2597C31.3132 80.8184 30.7922 80.1092 30.563 79.4801C30.4461 79.1633 30.3993 78.8616 30.403 78.6013C30.4053 78.3406 30.4517 78.1225 30.5086 77.9545C30.565 77.786 30.6286 77.6656 30.6744 77.5872C30.7201 77.5085 30.7469 77.4701 30.7469 77.4701C30.7469 77.4701 30.7233 77.5108 30.6845 77.5925C30.6457 77.674 30.593 77.7982 30.5518 77.967C30.4657 78.3 30.4514 78.8341 30.7149 79.4184C30.9717 79.9953 31.5084 80.6188 32.3057 80.9757C32.7022 81.1512 33.1621 81.2497 33.6406 81.223C33.7601 81.2174 33.8806 81.2032 34.0013 81.1821C34.0634 81.172 34.1177 81.1593 34.1796 81.1453L34.2764 81.1206L34.3678 81.0938C34.6218 81.0157 34.8858 80.9496 35.1472 80.8572C35.6752 80.6885 36.2113 80.4766 36.7554 80.2374C37.2964 79.9912 37.842 79.7094 38.3798 79.3806C39.4626 78.7296 40.4798 77.8657 41.5844 76.9806C42.138 76.5397 42.7261 76.1022 43.3673 75.7184C43.5248 75.6182 43.6937 75.5344 43.8573 75.4413C44.0245 75.3545 44.195 75.2718 44.3662 75.19C44.714 75.0374 45.0693 74.8968 45.4341 74.7812C46.1629 74.547 46.9186 74.3938 47.679 74.2996L48.2505 74.2402L48.8286 74.2036C49.0245 74.1885 49.2072 74.19 49.3953 74.1845L49.676 74.1785L49.8238 74.1765L49.9642 74.1764C50.718 74.1784 51.4977 74.2086 52.2577 74.3245C53.02 74.437 53.7729 74.6277 54.4888 74.8996C55.2056 75.1692 55.8826 75.5198 56.507 75.9173C57.1332 76.3132 57.7157 76.7428 58.279 77.1644C59.4026 78.0105 60.4718 78.812 61.577 79.4314C62.1273 79.7429 62.681 80.0121 63.2268 80.2512C63.502 80.365 63.7708 80.4828 64.0422 80.5793C64.3113 80.6844 64.5781 80.7724 64.8398 80.8585C65.0986 80.9489 65.3704 81.0176 65.626 81.0956C65.8706 81.1706 66.1106 81.2112 66.3506 81.2241C66.8294 81.2508 67.2893 81.1521 67.686 80.9764C68.4834 80.6192 69.0202 79.9957 69.2769 79.4185C69.5402 78.8341 69.526 78.3 69.4397 77.967C69.3984 77.7982 69.3457 77.6738 69.3069 77.5925C69.268 77.5108 69.2444 77.4701 69.2444 77.4701Z" fill="black"/>
</svg>
